<svg xmlns="http://www.w3.org/2000/svg" version="1.1" xmlns:xlink="http://www.w3.org/1999/xlink" xmlns:svgjs="http://svgjs.dev/svgjs" width="100%" height="100%" viewBox="0 0 1000 600"><rect width="1000" height="600" x="0" y="0" fill="#ffd700"/><g><circle r="166.66666666666666" cx="467.54484049479163" cy="489.7671033363648" fill="#252525" transform="matrix(0.41545045368214734,0,0,0.41545045368214734,0,96.52602832537163)"/><path d="M466.6716670713747 564.7670852854701L466.6716670713747 564.7670852854701Q452.9768149411399 564.7670852854701 443.5099037370178 562.2241932791849Q434.012355279808 559.6813012728996 423.8714245077549 554.6261545134171L423.8714245077549 554.6261545134171L421.6655422854352 518.4435586167564L425.1888263905292 518.4435586167564L436.00377673051327 541.8197827227277Q443.93882528024665 548.4374293896867 451.4449522867512 551.4092429392008Q458.9510792932557 554.4116937418027 466.6716670713747 554.4116937418027L466.6716670713747 554.4116937418027Q479.6924996336785 554.4116937418027 487.0760776278319 547.5489490501413Q494.45965562198535 540.7168416115678 494.45965562198535 529.044048185126L494.45965562198535 529.044048185126Q494.45965562198535 519.3320389563019 490.17044018969705 513.8173334005025Q485.85058750432097 508.3026278447033 477.79298994223655 503.9827751593272Q469.7660296332398 499.69355972703886 458.7366185216413 494.17885417123966L458.7366185216413 494.17885417123966Q448.35058972488605 488.8786093870548 441.08956074308367 483.82346262757216Q433.79789450819356 478.7376786150017 430.06014963148516 471.99748293569155Q426.29176750168904 465.2879245094691 426.29176750168904 455.146993737416L426.29176750168904 455.146993737416Q426.29176750168904 447.6408667309115 429.93760061913406 440.47174950837245Q433.58343373657914 433.3026322858334 439.8640706195728 427.4509169460687Q446.14470750256635 421.5992016063039 453.9878442930364 418.198466513561Q461.8003438304187 414.76709416773036 470.19495117646863 414.76709416773036L470.19495117646863 414.76709416773036Q480.3358819485217 414.76709416773036 488.94495006618615 417.1874371616645Q497.55401818385053 419.6077801555986 506.59200784474376 424.019544600238L506.59200784474376 424.019544600238L508.79789006706346 459.31366015735324L505.2746059619695 459.31366015735324L495.1336751899164 436.1518968229964Q487.41308741179745 430.4227304955827 481.653283831296 427.87983848929747Q475.9241175038823 425.3675837361001 468.4179904973778 425.3675837361001L468.4179904973778 425.3675837361001Q458.7366185216413 425.3675837361001 452.4253443855599 431.9852304030592Q446.14470750256635 438.6028770700183 446.14470750256635 448.28424904575473L446.14470750256635 448.28424904575473Q446.14470750256635 459.55875818205544 452.9768149411399 465.839395065049Q459.8395596328012 472.1200319480426 474.3922548494936 479.16660015823055L474.3922548494936 479.16660015823055Q487.84200895502624 485.78424682518965 496.4510770726907 491.42150139334Q505.06014519035506 497.05875596149036 509.22681161029226 504.3197849432927Q513.4241152833173 511.61145117818285 513.4241152833173 522.8553230613958L513.4241152833173 522.8553230613958Q513.4241152833173 533.2107146050632 509.01235083867783 541.0538513955333Q504.60058639403843 548.8969881860033 497.64592994311386 554.1665957171004Q490.721910745277 559.4668405012852 482.4498524115781 562.1322815199215Q474.17779407787924 564.7670852854701 466.6716670713747 564.7670852854701Z " fill="#ffd700" transform="matrix(0.41545045368214734,0,0,0.41545045368214734,0,96.52602832537163)"/><path d="M762.5509547911013 564.7670852854701L762.5509547911013 564.7670852854701Q748.8561026608663 564.7670852854701 739.3891914567444 562.2241932791849Q729.8916429995345 559.6813012728996 719.7507122274815 554.6261545134171L719.7507122274815 554.6261545134171L717.5448300051617 518.4435586167564L721.0681141102557 518.4435586167564L731.8830644502398 541.8197827227277Q739.8181129999732 548.4374293896867 747.3242400064777 551.4092429392008Q754.8303670129823 554.4116937418027 762.5509547911013 554.4116937418027L762.5509547911013 554.4116937418027Q775.5717873534049 554.4116937418027 782.9553653475584 547.5489490501413Q790.3389433417119 540.7168416115678 790.3389433417119 529.044048185126L790.3389433417119 529.044048185126Q790.3389433417119 519.3320389563019 786.0497279094236 513.8173334005025Q781.7298752240475 508.3026278447033 773.6722776619631 503.9827751593272Q765.6453173529663 499.69355972703886 754.6159062413678 494.17885417123966L754.6159062413678 494.17885417123966Q744.2298774446126 488.8786093870548 736.9688484628102 483.82346262757216Q729.6771822279201 478.7376786150017 725.9394373512117 471.99748293569155Q722.1710552214156 465.2879245094691 722.1710552214156 455.146993737416L722.1710552214156 455.146993737416Q722.1710552214156 447.6408667309115 725.8168883388606 440.47174950837245Q729.4627214563056 433.3026322858334 735.7433583392992 427.4509169460687Q742.0239952222928 421.5992016063039 749.8671320127629 418.198466513561Q757.6796315501451 414.76709416773036 766.0742388961952 414.76709416773036L766.0742388961952 414.76709416773036Q776.2151696682482 414.76709416773036 784.8242377859126 417.1874371616645Q793.4333059035771 419.6077801555986 802.4712955644702 424.019544600238L802.4712955644702 424.019544600238L804.6771777867899 459.31366015735324L801.153893681696 459.31366015735324L791.012962909643 436.1518968229964Q783.292375131524 430.4227304955827 777.5325715510226 427.87983848929747Q771.8034052236088 425.3675837361001 764.2972782171043 425.3675837361001L764.2972782171043 425.3675837361001Q754.6159062413678 425.3675837361001 748.3046321052865 431.9852304030592Q742.0239952222928 438.6028770700183 742.0239952222928 448.28424904575473L742.0239952222928 448.28424904575473Q742.0239952222928 459.55875818205544 748.8561026608663 465.839395065049Q755.7188473525277 472.1200319480426 770.2715425692202 479.16660015823055L770.2715425692202 479.16660015823055Q783.7212966747528 485.78424682518965 792.3303647924172 491.42150139334Q800.9394329100816 497.05875596149036 805.1060993300188 504.3197849432927Q809.3034030030437 511.61145117818285 809.3034030030437 522.8553230613958L809.3034030030437 522.8553230613958Q809.3034030030437 533.2107146050632 804.8916385584043 541.0538513955333Q800.4798741137649 548.8969881860033 793.5252176628403 554.1665957171004Q786.6011984650036 559.4668405012852 778.3291401313046 562.1322815199215Q770.0570817976057 564.7670852854701 762.5509547911013 564.7670852854701ZM885.1918789014591 562.5612030631504L836.8769307820401 562.5612030631504L836.8769307820401 559.0379189580565L851.4296259987325 551.7462527231663L851.4296259987325 449.8467489532312L836.8769307820401 442.55508271834105L836.8769307820401 439.0317986132471L885.1918789014591 439.0317986132471L885.1918789014591 442.55508271834105L870.17962488845 449.8467489532312L870.17962488845 551.7462527231663L885.1918789014591 559.0379189580565L885.1918789014591 562.5612030631504ZM958.6600118059403 562.5612030631504L913.8683477916152 562.5612030631504L913.8683477916152 559.0379189580565L929.5239841194675 551.7462527231663L933.7212877924925 449.8467489532312L916.7482495818659 442.55508271834105L916.7482495818659 439.0317986132471L956.2090315589184 439.0317986132471L998.1207937829927 532.5673322902201L1041.8095166861578 439.0317986132471L1079.3095144655929 439.0317986132471L1079.3095144655929 442.55508271834105L1062.9798585698095 448.7438078420713L1066.0742211316747 551.7462527231663L1080.1979948051383 559.0379189580565L1080.1979948051383 562.5612030631504L1032.311968228948 562.5612030631504L1032.311968228948 559.0379189580565L1046.8953006987283 551.9607134947807L1044.903879248023 459.77321895366987L996.588931128604 563.4496834026959L990.8597648011903 563.4496834026959L944.750698904091 459.77321895366987L942.5448166817714 551.9607134947807L958.6600118059403 559.0379189580565L958.6600118059403 562.5612030631504ZM1160.498235148193 562.5612030631504L1107.7715225841346 562.5612030631504L1107.7715225841346 559.0379189580565L1123.6416196836012 551.7462527231663L1123.6416196836012 449.8467489532312L1107.7715225841346 442.55508271834105L1107.7715225841346 439.0317986132471L1156.7298530183969 439.0317986132471Q1207.2506833601356 439.0317986132471 1207.2506833601356 474.1114533987479L1207.2506833601356 474.1114533987479Q1207.2506833601356 485.35532528196086 1200.418575921562 493.5048346033086Q1193.5864684829885 501.6849811777442 1181.5460280194934 505.9741966100325Q1169.5362248090862 510.29404929540857 1153.8805884812339 510.29404929540857L1153.8805884812339 510.29404929540857L1142.3916185733187 510.29404929540857L1142.3916185733187 551.7462527231663L1160.498235148193 559.0379189580565L1160.498235148193 562.5612030631504ZM1153.2065689133028 450.0612097248456L1142.3916185733187 450.0612097248456L1142.3916185733187 499.26463818381006L1154.523970796077 499.26463818381006Q1169.7506855807005 499.26463818381006 1178.6967634823304 492.7389032761143Q1187.6122041308727 486.2438056215063 1187.6122041308727 474.3259141703623L1187.6122041308727 474.3259141703623Q1187.6122041308727 461.3050816080585 1178.4516654576282 455.69846429299594Q1169.321764037472 450.0612097248456 1153.2065689133028 450.0612097248456L1153.2065689133028 450.0612097248456ZM1331.8830289211987 562.5612030631504L1233.0472504600411 562.5612030631504L1233.0472504600411 559.0379189580565L1248.7335240409811 551.7462527231663L1248.7335240409811 449.8467489532312L1233.0472504600411 442.55508271834105L1233.0472504600411 439.0317986132471L1285.3450414808706 439.0317986132471L1285.3450414808706 442.55508271834105L1267.4835229306984 449.8467489532312L1267.4835229306984 551.5317919515519L1315.338912253801 551.5317919515519L1328.3597448161047 520.2205192958472L1331.8830289211987 520.2205192958472L1331.8830289211987 562.5612030631504ZM1445.7004241422778 562.5612030631504L1392.5447900349905 562.5612030631504L1392.5447900349905 559.0379189580565L1409.7629262703192 551.7462527231663L1409.7629262703192 503.67640262844947L1369.3830267006335 449.17272938530016L1355.0447922555556 442.55508271834105L1355.0447922555556 439.0317986132471L1404.6771422577488 439.0317986132471L1404.6771422577488 442.55508271834105L1391.4418489238308 449.17272938530016L1391.4418489238308 450.0612097248456L1423.4271411474663 492.64699151685096L1452.5325315808511 450.27567049646L1452.5325315808511 449.6322881816168L1438.65385593209 442.55508271834105L1438.65385593209 439.0317986132471L1481.8830200389386 439.0317986132471L1481.8830200389386 442.55508271834105L1467.3303248222462 449.3871901569146L1428.5129251600367 504.5342457149071L1428.5129251600367 551.7462527231663L1445.7004241422778 559.0379189580565L1445.7004241422778 562.5612030631504ZM1616.4418356004403 562.5612030631504L1559.088897820128 562.5612030631504L1559.088897820128 559.0379189580565L1576.7359555986857 550.2143900687777L1576.7359555986857 429.31978938442285L1559.088897820128 420.49626049514404L1559.088897820128 416.97297639005006L1616.4418356004403 416.97297639005006Q1642.4835007250479 416.97297639005006 1658.2310488121636 426.47052484725987Q1674.009234152367 435.93743605138195 1674.009234152367 456.46439562019026L1674.009234152367 456.46439562019026Q1674.009234152367 468.5967478429486 1665.737175818668 477.9717472878074Q1657.4651174849691 487.34674673266613 1643.2494320522421 492.8614522884654Q1629.0031093664272 498.37615784426464 1611.1415908162555 498.37615784426464L1611.1415908162555 498.37615784426464L1596.588895599563 498.37615784426464L1596.588895599563 550.2143900687777L1616.4418356004403 559.0379189580565L1616.4418356004403 562.5612030631504ZM1613.8070318348916 429.1053286128084L1596.588895599563 429.1053286128084L1596.588895599563 486.2438056215063L1615.3388944892806 486.2438056215063Q1632.7714914962237 486.2438056215063 1642.6979614966624 478.4006688310362Q1652.6244314971007 470.58816929365395 1652.6244314971007 458.2107190461934L1652.6244314971007 458.2107190461934Q1652.6244314971007 442.7695434899555 1642.5754124843113 435.93743605138195Q1632.5570307246091 429.1053286128084 1613.8070318348916 429.1053286128084L1613.8070318348916 429.1053286128084ZM1798.6415797134302 562.5612030631504L1699.83643850536 562.5612030631504L1699.83643850536 559.0379189580565L1715.4920748332127 551.7462527231663L1715.4920748332127 449.8467489532312L1699.83643850536 442.55508271834105L1699.83643850536 439.0317986132471L1752.1035922731019 439.0317986132471L1752.1035922731019 442.55508271834105L1734.2420737229297 449.8467489532312L1734.2420737229297 551.5317919515519L1782.0974630460325 551.5317919515519L1795.118295608336 520.2205192958472L1798.6415797134302 520.2205192958472L1798.6415797134302 562.5612030631504ZM1862.3977033890872 562.5612030631504L1821.3744215045583 562.5612030631504L1821.3744215045583 559.0379189580565L1832.618293387771 553.3087526306427L1881.5766238220333 437.9288575020872L1890.8597115076288 437.9288575020872L1939.6035811702766 553.0636546059405L1952.409952960966 559.0379189580565L1952.409952960966 562.5612030631504L1904.3094656131614 562.5612030631504L1904.3094656131614 559.0379189580565L1919.7506411693996 552.8491938343261L1905.84132826755 519.3320389563019L1859.9773603951528 519.3320389563019L1846.0680474933035 553.3087526306427L1862.3977033890872 559.0379189580565L1862.3977033890872 562.5612030631504ZM1882.6795649331932 463.72542460199264L1864.603585611407 508.3026278447033L1901.2151030512962 508.3026278447033L1882.6795649331932 463.72542460199264ZM2019.6893607417167 562.5612030631504L1972.9062752766865 562.5612030631504L1972.9062752766865 559.0379189580565L1988.5619116045389 551.7462527231663L1988.5619116045389 449.6322881816168L1972.9062752766865 442.55508271834105L1972.9062752766865 439.0317986132471L2003.7886263891626 439.0317986132471L2078.574161176418 529.6874304999692L2078.574161176418 449.6322881816168L2059.824162286701 442.55508271834105L2059.824162286701 439.0317986132471L2106.147688955414 439.0317986132471L2106.147688955414 442.55508271834105L2090.7065133991764 449.6322881816168L2090.7065133991764 563.4496834026959L2082.0974452815117 563.4496834026959L2000.694263827297 465.5023852810835L2000.694263827297 551.102870408323L2019.6893607417167 559.0379189580565L2019.6893607417167 562.5612030631504Z " fill="#252525" transform="matrix(0.41545045368214734,0,0,0.41545045368214734,0,96.52602832537163)"/></g></svg>